<?xml version="1.0" encoding="UTF-8"?>
<!DOCTYPE svg PUBLIC "-//W3C//DTD SVG 1.1//EN" "http://www.w3.org/Graphics/SVG/1.1/DTD/svg11.dtd">
<svg version="1.2" width="100mm" height="100mm" viewBox="0 0 10000 10000" preserveAspectRatio="xMidYMid" fill-rule="evenodd" stroke-width="28.222" stroke-linejoin="round" xmlns="http://www.w3.org/2000/svg" xmlns:ooo="http://xml.openoffice.org/svg/export" xmlns:xlink="http://www.w3.org/1999/xlink" xmlns:presentation="http://sun.com/xmlns/staroffice/presentation" xmlns:smil="http://www.w3.org/2001/SMIL20/" xmlns:anim="urn:oasis:names:tc:opendocument:xmlns:animation:1.0" xml:space="preserve">
 <defs class="ClipPathGroup">
  <clipPath id="presentation_clip_path" clipPathUnits="userSpaceOnUse">
   <rect x="0" y="0" width="10000" height="10000"/>
  </clipPath>
  <clipPath id="presentation_clip_path_shrink" clipPathUnits="userSpaceOnUse">
   <rect x="10" y="10" width="9980" height="9980"/>
  </clipPath>
 </defs>
 <defs class="TextShapeIndex">
  <g ooo:slide="id1" ooo:id-list="id3 id4 id5 id6 id7 id8 id9"/>
 </defs>
 <defs class="EmbeddedBulletChars">
  <g id="bullet-char-template-57356" transform="scale(0.00048828125,-0.00048828125)">
   <path d="M 580,1141 L 1163,571 580,0 -4,571 580,1141 Z"/>
  </g>
  <g id="bullet-char-template-57354" transform="scale(0.00048828125,-0.00048828125)">
   <path d="M 8,1128 L 1137,1128 1137,0 8,0 8,1128 Z"/>
  </g>
  <g id="bullet-char-template-10146" transform="scale(0.00048828125,-0.00048828125)">
   <path d="M 174,0 L 602,739 174,1481 1456,739 174,0 Z M 1358,739 L 309,1346 659,739 1358,739 Z"/>
  </g>
  <g id="bullet-char-template-10132" transform="scale(0.00048828125,-0.00048828125)">
   <path d="M 2015,739 L 1276,0 717,0 1260,543 174,543 174,936 1260,936 717,1481 1274,1481 2015,739 Z"/>
  </g>
  <g id="bullet-char-template-10007" transform="scale(0.00048828125,-0.00048828125)">
   <path d="M 0,-2 C -7,14 -16,27 -25,37 L 356,567 C 262,823 215,952 215,954 215,979 228,992 255,992 264,992 276,990 289,987 310,991 331,999 354,1012 L 381,999 492,748 772,1049 836,1024 860,1049 C 881,1039 901,1025 922,1006 886,937 835,863 770,784 769,783 710,716 594,584 L 774,223 C 774,196 753,168 711,139 L 727,119 C 717,90 699,76 672,76 641,76 570,178 457,381 L 164,-76 C 142,-110 111,-127 72,-127 30,-127 9,-110 8,-76 1,-67 -2,-52 -2,-32 -2,-23 -1,-13 0,-2 Z"/>
  </g>
  <g id="bullet-char-template-10004" transform="scale(0.00048828125,-0.00048828125)">
   <path d="M 285,-33 C 182,-33 111,30 74,156 52,228 41,333 41,471 41,549 55,616 82,672 116,743 169,778 240,778 293,778 328,747 346,684 L 369,508 C 377,444 397,411 428,410 L 1163,1116 C 1174,1127 1196,1133 1229,1133 1271,1133 1292,1118 1292,1087 L 1292,965 C 1292,929 1282,901 1262,881 L 442,47 C 390,-6 338,-33 285,-33 Z"/>
  </g>
  <g id="bullet-char-template-9679" transform="scale(0.00048828125,-0.00048828125)">
   <path d="M 813,0 C 632,0 489,54 383,161 276,268 223,411 223,592 223,773 276,916 383,1023 489,1130 632,1184 813,1184 992,1184 1136,1130 1245,1023 1353,916 1407,772 1407,592 1407,412 1353,268 1245,161 1136,54 992,0 813,0 Z"/>
  </g>
  <g id="bullet-char-template-8226" transform="scale(0.00048828125,-0.00048828125)">
   <path d="M 346,457 C 273,457 209,483 155,535 101,586 74,649 74,723 74,796 101,859 155,911 209,963 273,989 346,989 419,989 480,963 531,910 582,859 608,796 608,723 608,648 583,586 532,535 482,483 420,457 346,457 Z"/>
  </g>
  <g id="bullet-char-template-8211" transform="scale(0.00048828125,-0.00048828125)">
   <path d="M -4,459 L 1135,459 1135,606 -4,606 -4,459 Z"/>
  </g>
  <g id="bullet-char-template-61548" transform="scale(0.00048828125,-0.00048828125)">
   <path d="M 173,740 C 173,903 231,1043 346,1159 462,1274 601,1332 765,1332 928,1332 1067,1274 1183,1159 1299,1043 1357,903 1357,740 1357,577 1299,437 1183,322 1067,206 928,148 765,148 601,148 462,206 346,322 231,437 173,577 173,740 Z"/>
  </g>
 </defs>
 <g>
  <g id="id2" class="Master_Slide">
   <g id="bg-id2" class="Background"/>
   <g id="bo-id2" class="BackgroundObjects"/>
  </g>
 </g>
 <g class="SlideGroup">
  <g>
   <g id="container-id1">
    <g id="id1" class="Slide" clip-path="url(#presentation_clip_path)">
     <g class="Page">
      <g class="com.sun.star.drawing.CustomShape">
       <g id="id3">
        <rect class="BoundingBox" stroke="none" fill="none" x="1394" y="1394" width="7214" height="7114"/>
        <path fill="none" stroke="rgb(255,255,255)" stroke-width="212" stroke-linejoin="round" d="M 2151,1500 L 2152,1500 C 2037,1500 1925,1530 1826,1587 1727,1644 1644,1727 1587,1826 1530,1925 1500,2037 1500,2152 L 1500,7749 1500,7749 C 1500,7864 1530,7976 1587,8075 1644,8174 1727,8257 1826,8314 1925,8371 2037,8401 2152,8401 L 7849,8401 7849,8401 C 7964,8401 8076,8371 8175,8314 8274,8257 8357,8174 8414,8075 8471,7976 8501,7864 8501,7749 L 8500,2151 8501,2152 8501,2152 C 8501,2037 8471,1925 8414,1826 8357,1727 8274,1644 8175,1587 8076,1530 7964,1500 7849,1500 L 2151,1500 Z"/>
       </g>
      </g>
      <g class="com.sun.star.drawing.CustomShape">
       <g id="id4">
        <rect class="BoundingBox" stroke="none" fill="none" x="2400" y="2300" width="1202" height="1202"/>
        <path fill="rgb(255,255,255)" stroke="none" d="M 3601,2901 C 3601,3006 3573,3109 3521,3201 3468,3292 3392,3368 3301,3421 3209,3473 3106,3501 3001,3501 2895,3501 2792,3473 2700,3421 2609,3368 2533,3292 2480,3201 2428,3109 2400,3006 2400,2901 2400,2795 2428,2692 2480,2600 2533,2509 2609,2433 2700,2380 2792,2328 2895,2300 3000,2300 3106,2300 3209,2328 3301,2380 3392,2433 3468,2509 3521,2600 3573,2692 3601,2795 3601,2900 L 3601,2901 Z"/>
       </g>
      </g>
      <g class="com.sun.star.drawing.CustomShape">
       <g id="id5">
        <rect class="BoundingBox" stroke="none" fill="none" x="3999" y="2600" width="3703" height="602"/>
        <path fill="rgb(255,255,255)" stroke="none" d="M 4100,2600 L 4100,2600 C 4083,2600 4065,2605 4050,2613 4035,2622 4022,2635 4013,2650 4005,2665 4000,2683 4000,2700 L 4000,3100 4000,3101 C 4000,3118 4005,3136 4013,3151 4022,3166 4035,3179 4050,3188 4065,3196 4083,3201 4100,3201 L 7600,3201 7601,3201 C 7618,3201 7636,3196 7651,3188 7666,3179 7679,3166 7688,3151 7696,3136 7701,3118 7701,3101 L 7701,2700 7701,2700 7701,2700 C 7701,2683 7696,2665 7688,2650 7679,2635 7666,2622 7651,2613 7636,2605 7618,2600 7601,2600 L 4100,2600 Z"/>
       </g>
      </g>
      <g class="com.sun.star.drawing.CustomShape">
       <g id="id6">
        <rect class="BoundingBox" stroke="none" fill="none" x="2400" y="4100" width="1202" height="1202"/>
        <path fill="rgb(255,255,255)" stroke="none" d="M 3601,4701 C 3601,4806 3573,4909 3521,5001 3468,5092 3392,5168 3301,5221 3209,5273 3106,5301 3001,5301 2895,5301 2792,5273 2700,5221 2609,5168 2533,5092 2480,5001 2428,4909 2400,4806 2400,4701 2400,4595 2428,4492 2480,4400 2533,4309 2609,4233 2700,4180 2792,4128 2895,4100 3000,4100 3106,4100 3209,4128 3301,4180 3392,4233 3468,4309 3521,4400 3573,4492 3601,4595 3601,4700 L 3601,4701 Z"/>
       </g>
      </g>
      <g class="com.sun.star.drawing.CustomShape">
       <g id="id7">
        <rect class="BoundingBox" stroke="none" fill="none" x="3999" y="4400" width="3703" height="603"/>
        <path fill="rgb(255,255,255)" stroke="none" d="M 4100,4400 L 4100,4400 C 4083,4400 4065,4405 4050,4413 4035,4422 4022,4435 4013,4450 4005,4465 4000,4483 4000,4500 L 4000,4900 4000,4901 C 4000,4918 4005,4936 4013,4951 4022,4966 4035,4979 4050,4988 4065,4996 4083,5001 4100,5001 L 7600,5001 7601,5001 C 7618,5001 7636,4996 7651,4988 7666,4979 7679,4966 7688,4951 7696,4936 7701,4918 7701,4901 L 7701,4500 7701,4500 7701,4500 C 7701,4483 7696,4465 7688,4450 7679,4435 7666,4422 7651,4413 7636,4405 7618,4400 7601,4400 L 4100,4400 Z"/>
       </g>
      </g>
      <g class="com.sun.star.drawing.CustomShape">
       <g id="id8">
        <rect class="BoundingBox" stroke="none" fill="none" x="2400" y="6000" width="1202" height="1202"/>
        <path fill="rgb(255,255,255)" stroke="none" d="M 3601,6601 C 3601,6706 3573,6809 3521,6901 3468,6992 3392,7068 3301,7121 3209,7173 3106,7201 3001,7201 2895,7201 2792,7173 2700,7121 2609,7068 2533,6992 2480,6901 2428,6809 2400,6706 2400,6601 2400,6495 2428,6392 2480,6300 2533,6209 2609,6133 2700,6080 2792,6028 2895,6000 3000,6000 3106,6000 3209,6028 3301,6080 3392,6133 3468,6209 3521,6300 3573,6392 3601,6495 3601,6600 L 3601,6601 Z"/>
       </g>
      </g>
      <g class="com.sun.star.drawing.CustomShape">
       <g id="id9">
        <rect class="BoundingBox" stroke="none" fill="none" x="3999" y="6300" width="3703" height="602"/>
        <path fill="rgb(255,255,255)" stroke="none" d="M 4100,6300 L 4100,6300 C 4083,6300 4065,6305 4050,6313 4035,6322 4022,6335 4013,6350 4005,6365 4000,6383 4000,6400 L 4000,6800 4000,6801 C 4000,6818 4005,6836 4013,6851 4022,6866 4035,6879 4050,6888 4065,6896 4083,6901 4100,6901 L 7600,6901 7601,6901 C 7618,6901 7636,6896 7651,6888 7666,6879 7679,6866 7688,6851 7696,6836 7701,6818 7701,6801 L 7701,6400 7701,6400 7701,6400 C 7701,6383 7696,6365 7688,6350 7679,6335 7666,6322 7651,6313 7636,6305 7618,6300 7601,6300 L 4100,6300 Z"/>
       </g>
      </g>
     </g>
    </g>
   </g>
  </g>
 </g>
</svg>